<svg width="60" height="61" viewBox="0 0 60 61" fill="none" xmlns="http://www.w3.org/2000/svg">
<rect y="0.65625" width="60" height="60" rx="8" fill="#6366F1" fill-opacity="0.08"/>
<path d="M38.5312 33.0691C39.1354 33.0691 39.625 33.5587 39.625 34.1629V35.4754C39.625 36.0795 39.1354 36.5691 38.5312 36.5691H36.0156C35.4115 36.5691 34.9219 36.0795 34.9219 35.4754V34.1629C34.9219 33.5587 35.4115 33.0691 36.0156 33.0691H38.5312ZM41.8125 31.1004V27.8191H18.1875V36.5625C18.1875 37.7686 19.1689 38.75 20.375 38.75H39.625C40.8311 38.75 41.8125 37.7686 41.8125 36.5625C41.8125 35.9584 42.3021 35.4688 42.9062 35.4688C43.5104 35.4688 44 35.9584 44 36.5625C44 38.9749 42.0374 40.9375 39.625 40.9375H20.375C17.9626 40.9375 16 38.9749 16 36.5625V24.75C16 22.3376 17.9626 20.375 20.375 20.375H39.625C42.0374 20.375 44 22.3376 44 24.75V31.1004C44 31.7045 43.5104 32.1941 42.9062 32.1941C42.3021 32.1941 41.8125 31.7045 41.8125 31.1004ZM41.8125 25.6316V24.75C41.8125 23.5439 40.8311 22.5625 39.625 22.5625H20.375C19.1689 22.5625 18.1875 23.5439 18.1875 24.75V25.6316H41.8125ZM21.4688 30.0066C20.8646 30.0066 20.375 30.4962 20.375 31.1004C20.375 31.7045 20.8646 32.1941 21.4688 32.1941H30.4922C31.0963 32.1941 31.5859 31.7045 31.5859 31.1004C31.5859 30.4962 31.0963 30.0066 30.4922 30.0066H21.4688Z" fill="url(#paint0_linear_4632_11168)"/>
<defs>
<linearGradient id="paint0_linear_4632_11168" x1="16" y1="30.7054" x2="44" y2="30.7054" gradientUnits="userSpaceOnUse">
<stop stop-color="#6366F1"/>
<stop offset="0.5" stop-color="#8B5CF6"/>
<stop offset="1" stop-color="#D946EF"/>
</linearGradient>
</defs>
</svg>
