<svg width="61" height="61" viewBox="0 0 61 61" fill="none" xmlns="http://www.w3.org/2000/svg">
<rect x="0.588867" y="0.65625" width="60" height="60" rx="8" fill="#6366F1" fill-opacity="0.08"/>
<g clip-path="url(#clip0_4632_11161)">
<path d="M30.5341 44.6562C30.3664 44.6562 30.1989 44.6178 30.0449 44.5409C29.9169 44.4768 26.8754 42.9347 23.693 39.4755C21.8277 37.4482 20.2956 35.1748 19.139 32.7188C17.6945 29.6512 16.8372 26.2926 16.5905 22.7364C16.5704 22.4463 16.6668 22.1602 16.858 21.9413C17.0494 21.7223 17.3198 21.5884 17.6101 21.5694C19.6133 21.4378 21.1825 19.7602 21.1825 17.75C21.1825 17.1459 21.6722 16.6562 22.2763 16.6562H38.9013C39.5052 16.6562 39.995 17.1459 39.995 17.75C39.995 19.7589 41.5632 21.4365 43.5653 21.5694C43.8601 21.5888 44.1344 21.7268 44.3258 21.9518C44.5174 22.1767 44.6097 22.4696 44.582 22.7637C44.2079 26.7123 43.1176 30.4055 41.3411 33.7408C41.057 34.274 40.3945 34.4758 39.8615 34.1919C39.3283 33.908 39.1265 33.2456 39.4104 32.7124C40.8985 29.9186 41.8655 26.8467 42.2908 23.5678C40.0512 22.9774 38.3307 21.1252 37.9077 18.8438H23.2699C22.8452 21.1351 21.112 22.993 18.8585 23.5751C19.4334 29.093 21.5782 33.9174 25.2418 37.928C27.4349 40.3285 29.585 41.7448 30.5279 42.3053C31.5597 41.6777 34.055 39.9911 36.4844 37.0669C36.8704 36.602 37.5597 36.5384 38.0246 36.9244C38.4892 37.3104 38.5531 38 38.1671 38.4646C34.7098 42.6264 31.181 44.4601 31.0323 44.5362C30.8759 44.6163 30.705 44.6562 30.5341 44.6562ZM31.3801 38.7372C31.7443 38.255 31.6488 37.5693 31.1671 37.2051C30.2214 36.4905 29.3265 35.6802 28.507 34.7971C26.1245 32.2285 24.508 29.2107 23.696 25.8179C24.1335 25.4799 24.5452 25.1065 24.9252 24.7024C25.5554 24.0318 26.0935 23.2831 26.5246 22.4764C26.8092 21.9436 26.6079 21.281 26.0752 20.9962C25.5424 20.7117 24.8797 20.9129 24.5952 21.4457C24.2549 22.0823 23.8298 22.6738 23.3316 23.204C22.8924 23.6712 22.4002 24.0858 21.8691 24.4368C21.4966 24.6829 21.3109 25.1309 21.4004 25.5686C22.2331 29.6405 24.0844 33.246 26.9034 36.2848C27.8096 37.2617 28.8003 38.1587 29.8482 38.9504C30.0456 39.0995 30.2771 39.1715 30.5068 39.1715C30.8379 39.1715 31.1651 39.0217 31.3801 38.7372Z" fill="url(#paint0_linear_4632_11161)"/>
</g>
<defs>
<linearGradient id="paint0_linear_4632_11161" x1="16.5879" y1="30.7232" x2="44.5868" y2="30.7232" gradientUnits="userSpaceOnUse">
<stop stop-color="#6366F1"/>
<stop offset="0.5" stop-color="#8B5CF6"/>
<stop offset="1" stop-color="#D946EF"/>
</linearGradient>
<clipPath id="clip0_4632_11161">
<rect width="28" height="28" fill="white" transform="translate(16.5889 16.6562)"/>
</clipPath>
</defs>
</svg>
