<svg width="60" height="61" viewBox="0 0 60 61" fill="none" xmlns="http://www.w3.org/2000/svg">
<rect y="0.318848" width="60" height="60" rx="8" fill="#6366F1" fill-opacity="0.08"/>
<g clip-path="url(#clip0_4632_11138)">
<path d="M38.1484 30.3738C36.3391 30.3738 34.8672 31.8458 34.8672 33.6551C34.8672 35.4644 36.3391 36.9363 38.1484 36.9363H42.7968C42.8154 36.9363 42.8335 36.9345 42.8518 36.9335C42.8699 36.9344 42.8878 36.9363 42.9062 36.9363C43.5103 36.9363 43.9999 36.4466 43.9999 35.8425V27.2566C43.9999 25.8005 43.2843 24.5091 42.1868 23.7134L38.4659 17.6092C38.3142 17.3603 38.0693 17.1822 37.7857 17.1146C37.5021 17.0469 37.2033 17.0953 36.9555 17.249L34.2115 18.9506L32.974 16.8564C32.8252 16.6047 32.5818 16.423 32.2982 16.3519C32.0145 16.2808 31.7141 16.3264 31.4643 16.4782L20.9278 22.8816H19.2812C18.6873 22.8816 18.2024 22.4057 18.1878 21.8152C18.2024 21.2247 18.6873 20.7488 19.2812 20.7488H21.3047C21.9088 20.7488 22.3984 20.2591 22.3984 19.6551C22.3984 19.051 21.9088 18.5613 21.3047 18.5613H19.2812C17.7337 18.5613 16.4331 19.6383 16.0891 21.0821C16.0319 21.2148 16 21.3608 16 21.5144V21.7879V21.8426V39.9441C16 42.3565 17.9626 44.3191 20.375 44.3191H39.625C41.5111 44.3191 43.1793 43.1175 43.7758 41.3293C43.967 40.7563 43.6574 40.1368 43.0844 39.9456C42.5114 39.7545 41.8919 40.064 41.7007 40.637C41.4025 41.531 40.5684 42.1316 39.625 42.1316H20.375C19.1688 42.1316 18.1875 41.1503 18.1875 39.9441V24.8815C18.5298 25.0029 18.8979 25.0691 19.2812 25.0691H39.625C40.8311 25.0691 41.8125 26.0504 41.8125 27.2566V30.3738H38.1484ZM41.8125 34.7488H38.1484C37.5453 34.7488 37.0546 34.2582 37.0546 33.655C37.0546 33.0519 37.5453 32.5613 38.1484 32.5613H41.8125V34.7488ZM25.1398 22.8817L31.6541 18.9227L32.8188 20.8937C32.8411 20.9475 32.8668 21.0006 32.8986 21.0518C32.9224 21.0902 32.9487 21.1259 32.9762 21.1602L33.9934 22.8817H25.1398ZM36.5343 22.8816L35.3246 20.8343L37.1717 19.6889L39.1179 22.8816H36.5343Z" fill="url(#paint0_linear_4632_11138)"/>
</g>
<defs>
<linearGradient id="paint0_linear_4632_11138" x1="16" y1="30.3861" x2="43.9999" y2="30.3861" gradientUnits="userSpaceOnUse">
<stop stop-color="#6366F1"/>
<stop offset="0.5" stop-color="#8B5CF6"/>
<stop offset="1" stop-color="#D946EF"/>
</linearGradient>
<clipPath id="clip0_4632_11138">
<rect width="28" height="28" fill="white" transform="translate(16 16.3188)"/>
</clipPath>
</defs>
</svg>
