<svg width="60" height="61" viewBox="0 0 60 61" fill="none" xmlns="http://www.w3.org/2000/svg">
<rect y="0.987549" width="60" height="60" rx="8" fill="#6366F1" fill-opacity="0.08"/>
<g clip-path="url(#clip0_4632_11154)">
<path d="M41.8127 38.9702V19.7217C41.8127 19.4203 41.5673 19.1748 41.2658 19.1748H38.8598C38.5582 19.1748 38.3129 19.4203 38.3129 19.7217V42.7981H42.9062C43.5104 42.7981 44 43.2878 44 43.8917C44 44.4958 43.5104 44.9854 42.9062 44.9854H17.0959C16.4918 44.9854 16.0021 44.4958 16.0021 43.8917V36.072C16.0021 34.5645 17.2288 33.3378 18.7363 33.3378H21.1423C22.6501 33.3378 23.8765 34.5645 23.8765 36.072V38.9702C23.8765 39.5743 23.3869 40.064 22.783 40.064C22.1788 40.064 21.6892 39.5743 21.6892 38.9702V36.072C21.6892 35.7706 21.444 35.5251 21.1423 35.5251H18.7363C18.4349 35.5251 18.1894 35.7706 18.1894 36.072V42.7981H26.064V28.4711C26.064 26.9633 27.2904 25.7369 28.7982 25.7369H31.2042C32.7117 25.7369 33.9384 26.9633 33.9384 28.4711V38.9702C33.9384 39.5743 33.4487 40.064 32.8446 40.064C32.2407 40.064 31.7509 39.5743 31.7509 38.9702V28.4711C31.7509 28.1694 31.5056 27.9242 31.2042 27.9242H28.7982C28.4965 27.9242 28.2513 28.1694 28.2513 28.4711V42.7981H36.1256V19.7217C36.1256 18.2142 37.3523 16.9875 38.8598 16.9875H41.2658C42.7734 16.9875 44 18.2142 44 19.7217V38.9702C44 39.5743 43.5104 40.064 42.9062 40.064C42.3023 40.064 41.8127 39.5743 41.8127 38.9702ZM20.3568 26.7758H18.7282C18.4594 26.7758 18.1873 26.6068 18.1873 26.2838C18.1873 25.6797 17.6977 25.19 17.0938 25.19C16.4896 25.19 16 25.6797 16 26.2838C16 27.7524 17.1454 28.9096 18.6259 28.9607V29.5646C18.6259 30.1687 19.1155 30.6584 19.7196 30.6584C20.3235 30.6584 20.8131 30.1687 20.8131 29.5646V28.9312C22.3177 28.721 23.4392 27.4837 23.4392 25.9418V25.8461C23.4392 24.1275 22.0564 22.7293 20.3568 22.7293H19.3547C18.8564 22.7293 18.4659 22.3488 18.4659 21.8629V21.7836C18.4659 21.294 18.848 20.9248 19.3547 20.9248H20.3024C20.5809 20.9248 20.8689 21.1111 20.8689 21.4232C20.8689 22.0273 21.3587 22.517 21.9626 22.517C22.5668 22.517 23.0564 22.0273 23.0564 21.4232C23.0564 20.1124 22.0885 19.0189 20.8131 18.7845V18.0813C20.8131 17.4772 20.3235 16.9875 19.7196 16.9875C19.1155 16.9875 18.6259 17.4772 18.6259 18.0813V18.8221C18.0845 18.9499 17.5887 19.2197 17.1867 19.6132C16.6009 20.1863 16.2786 20.9571 16.2786 21.7836V21.8629C16.2786 22.6889 16.6003 23.4603 17.1845 24.0352C17.7624 24.6036 18.5331 24.9166 19.3547 24.9166H20.3568C20.842 24.9166 21.2517 25.3423 21.2517 25.8461V25.9418C21.2517 26.4173 20.867 26.7758 20.3568 26.7758Z" fill="url(#paint0_linear_4632_11154)"/>
</g>
<defs>
<linearGradient id="paint0_linear_4632_11154" x1="16" y1="31.0535" x2="44" y2="31.0535" gradientUnits="userSpaceOnUse">
<stop stop-color="#6366F1"/>
<stop offset="0.5" stop-color="#8B5CF6"/>
<stop offset="1" stop-color="#D946EF"/>
</linearGradient>
<clipPath id="clip0_4632_11154">
<rect width="28" height="28" fill="white" transform="translate(16 16.9875)"/>
</clipPath>
</defs>
</svg>
