<svg width="61" height="61" viewBox="0 0 61 61" fill="none" xmlns="http://www.w3.org/2000/svg">
<rect x="0.588867" y="0.318848" width="60" height="60" rx="8" fill="#6366F1" fill-opacity="0.08"/>
<g clip-path="url(#clip0_4632_11131)">
<path d="M30.5342 37.9751C25.5029 37.9751 23.1616 33.7533 23.0642 33.5736C22.7769 33.0423 22.9747 32.3786 23.506 32.0911C24.0375 31.8037 24.701 32.0016 24.9883 32.5328C24.9907 32.5371 25.4621 33.3803 26.3999 34.2002C27.6048 35.2535 28.9957 35.7876 30.5342 35.7876C34.2762 35.7876 36.0623 32.5653 36.0798 32.5328C36.3674 32.0016 37.0311 31.8037 37.5624 32.0913C38.0937 32.3786 38.2915 33.0423 38.0039 33.5736C37.9067 33.7533 35.5654 37.9751 30.5342 37.9751ZM37.8328 42.3012C38.3496 41.9882 38.5147 41.3157 38.2018 40.799C37.8888 40.2824 37.2161 40.1173 36.6996 40.4303C34.8624 41.543 32.7492 42.1313 30.5889 42.1313C24.0755 42.1313 18.7764 36.8322 18.7764 30.3188C18.7764 23.8055 24.0755 18.5063 30.5889 18.5063C37.1022 18.5063 42.4014 23.8055 42.4014 30.3188C42.4014 32.648 41.7088 34.9149 40.3984 36.8749C40.0626 37.3772 40.1976 38.0565 40.6996 38.3921C41.2021 38.7279 41.8812 38.5929 42.2168 38.0907C43.7688 35.7699 44.5889 33.0823 44.5889 30.3188C44.5889 26.5794 43.1326 23.0636 40.4884 20.4193C37.8441 17.7751 34.3283 16.3188 30.5889 16.3188C26.8494 16.3188 23.3336 17.7751 20.6894 20.4193C18.0451 23.0636 16.5889 26.5794 16.5889 30.3188C16.5889 34.0583 18.0451 37.5741 20.6894 40.2184C23.3336 42.8626 26.8494 44.3188 30.5889 44.3188C33.1489 44.3188 35.6539 43.6212 37.8328 42.3012ZM38.1904 27.6938C38.1904 26.1861 36.9638 24.9595 35.4561 24.9595C33.9483 24.9595 32.7217 26.1861 32.7217 27.6938C32.7217 28.298 33.2113 28.7876 33.8154 28.7876C34.4196 28.7876 34.9092 28.298 34.9092 27.6938C34.9092 27.3922 35.1544 27.147 35.4561 27.147C35.7577 27.147 36.0029 27.3922 36.0029 27.6938C36.0029 28.298 36.4926 28.7876 37.0967 28.7876C37.7008 28.7876 38.1904 28.298 38.1904 27.6938ZM28.5107 27.6938C28.5107 26.1861 27.2841 24.9595 25.7764 24.9595C24.2686 24.9595 23.042 26.1861 23.042 27.6938C23.042 28.298 23.5316 28.7876 24.1357 28.7876C24.7399 28.7876 25.2295 28.298 25.2295 27.6938C25.2295 27.3922 25.4747 27.147 25.7764 27.147C26.078 27.147 26.3232 27.3922 26.3232 27.6938C26.3232 28.298 26.8129 28.7876 27.417 28.7876C28.0211 28.7876 28.5107 28.298 28.5107 27.6938Z" fill="url(#paint0_linear_4632_11131)"/>
</g>
<defs>
<linearGradient id="paint0_linear_4632_11131" x1="16.5889" y1="30.3858" x2="44.5889" y2="30.3858" gradientUnits="userSpaceOnUse">
<stop stop-color="#6366F1"/>
<stop offset="0.5" stop-color="#8B5CF6"/>
<stop offset="1" stop-color="#D946EF"/>
</linearGradient>
<clipPath id="clip0_4632_11131">
<rect width="28" height="28" fill="white" transform="translate(16.5889 16.3188)"/>
</clipPath>
</defs>
</svg>
