<svg width="61" height="61" viewBox="0 0 61 61" fill="none" xmlns="http://www.w3.org/2000/svg">
<rect x="0.588867" y="0.987549" width="60" height="60" rx="8" fill="#6366F1" fill-opacity="0.08"/>
<g clip-path="url(#clip0_4632_11147)">
<path d="M42.9106 39.532C44.0102 38.0349 44.5879 36.2951 44.5879 34.4615C44.5879 31.5264 43.0657 28.8013 40.4977 27.1007C40.2608 24.4856 39.0398 22.0604 36.9982 20.1918C34.7406 18.1255 31.7455 16.9875 28.5645 16.9875C25.3835 16.9875 22.3883 18.1255 20.1307 20.1918C17.8461 22.2828 16.5879 25.0707 16.5879 28.0418C16.5879 30.3271 17.3246 32.4937 18.7251 34.3475L16.6677 39.4369C16.5008 39.8497 16.6007 40.3223 16.9204 40.6321C17.1287 40.8341 17.4032 40.9407 17.6819 40.9407C17.8309 40.9406 17.981 40.9102 18.1229 40.8477L23.9909 38.261C24.7276 38.5426 25.4865 38.7532 26.263 38.8927C27.0583 40.2007 28.1928 41.3084 29.5719 42.1147C31.1115 43.0148 32.8893 43.4958 34.7178 43.5096C34.7447 43.5116 34.7715 43.5137 34.7989 43.5137C36.0631 43.5137 37.288 43.2954 38.4467 42.864L43.053 44.8946C43.1948 44.9571 43.345 44.9875 43.4939 44.9875C43.7726 44.9875 44.0472 44.881 44.2555 44.679C44.5751 44.3691 44.675 43.8965 44.5082 43.4838L42.9106 39.532ZM40.6443 39.7625L41.4706 41.8064L38.9092 40.6774C38.6323 40.5553 38.3172 40.5534 38.0388 40.6722C37.0349 41.1005 35.9599 41.32 34.8431 41.3257C34.8284 41.3251 34.8138 41.3234 34.7988 41.3234C32.6434 41.3234 30.607 40.4811 29.1844 39.08C30.9882 38.9936 32.7562 38.533 34.3325 37.7324C34.8711 37.4589 35.0859 36.8006 34.8124 36.262C34.5389 35.7234 33.8805 35.5086 33.3419 35.7821C31.8908 36.5191 30.2388 36.9086 28.5645 36.9086C27.1096 36.9086 25.7089 36.6258 24.4014 36.0679C24.1231 35.9491 23.8079 35.9509 23.531 36.0731L19.7052 37.7596L20.9933 34.5732C21.1461 34.1954 21.0761 33.7639 20.8117 33.4538C19.4796 31.8909 18.7754 30.0195 18.7754 28.0418C18.7754 23.1526 23.1668 19.175 28.5645 19.175C33.9622 19.175 38.3535 23.1526 38.3535 28.0418C38.3535 29.621 37.8893 31.1713 37.0108 32.5251C36.682 33.0318 36.8263 33.7091 37.3331 34.0379C37.8397 34.3668 38.5171 34.2224 38.846 33.7157C39.6255 32.5142 40.1463 31.1877 40.3871 29.81C41.6684 31.0648 42.4004 32.7175 42.4004 34.4615C42.4004 35.9887 41.856 37.4347 40.8259 38.643C40.5615 38.9532 40.4916 39.3847 40.6443 39.7625ZM29.6035 33.6672C29.6035 34.2713 29.1139 34.761 28.5098 34.761C27.9057 34.761 27.416 34.2713 27.416 33.6672C27.416 33.0631 27.9057 32.5735 28.5098 32.5735C29.1139 32.5735 29.6035 33.0631 29.6035 33.6672ZM32.6651 25.4724C32.6657 25.4876 32.6661 25.5028 32.6661 25.5182C32.6665 27.1647 31.6882 28.6464 30.1738 29.2928C29.8604 29.4266 29.6579 29.7422 29.6579 30.0968V30.1672C29.6579 30.7713 29.1682 31.261 28.5641 31.261C27.9601 31.261 27.4704 30.7713 27.4704 30.1672V30.0968C27.4704 28.8647 28.1944 27.7594 29.3149 27.2811C30.0124 26.9833 30.4663 26.3062 30.4783 25.5501C30.478 25.5396 30.4779 25.529 30.4779 25.5185C30.4779 24.4633 29.6194 23.6048 28.5641 23.6048C27.5089 23.6047 26.6504 24.4632 26.6504 25.5184C26.6504 26.1225 26.1607 26.6121 25.5567 26.6121C24.9526 26.6121 24.4629 26.1225 24.4629 25.5184C24.4629 23.257 26.3027 21.4172 28.5641 21.4172C30.8102 21.4172 32.6404 23.2321 32.6651 25.4724Z" fill="url(#paint0_linear_4632_11147)"/>
</g>
<defs>
<linearGradient id="paint0_linear_4632_11147" x1="16.5879" y1="31.0545" x2="44.588" y2="31.0545" gradientUnits="userSpaceOnUse">
<stop stop-color="#6366F1"/>
<stop offset="0.5" stop-color="#8B5CF6"/>
<stop offset="1" stop-color="#D946EF"/>
</linearGradient>
<clipPath id="clip0_4632_11147">
<rect width="28" height="28" fill="white" transform="translate(16.5889 16.9875)"/>
</clipPath>
</defs>
</svg>
